<?xml version="1.0" standalone="no"?>
<!DOCTYPE svg PUBLIC "-//W3C//DTD SVG 1.1//EN" "http://www.w3.org/Graphics/SVG/1.1/DTD/svg11.dtd" >
<svg xmlns="http://www.w3.org/2000/svg">
<metadata></metadata>
<defs>
<font id="oneplusoneblack" horiz-adv-x="1271" >
<font-face units-per-em="2048" ascent="1536" descent="-512" />
<missing-glyph horiz-adv-x="645" />
<glyph horiz-adv-x="0" />
<glyph horiz-adv-x="682" />
<glyph unicode=" "  horiz-adv-x="645" />
<glyph unicode="&#x09;" horiz-adv-x="645" />
<glyph unicode="&#xa0;" horiz-adv-x="645" />
<glyph unicode="!" horiz-adv-x="794" d="M174 172q0 91 72 160q67 55 166 55t166 -55q69 -66 69 -160q0 -97 -69 -160q-67 -55 -166 -55t-166 55q-72 66 -72 160zM184 1198h449l-101 -657h-247z" />
<glyph unicode="&#x22;" horiz-adv-x="1064" d="M57 979v547h369l-74 -547h-295zM584 979v547h368l-73 -547h-295z" />
<glyph unicode="#" horiz-adv-x="1476" d="M92 141v285h199l28 313h-227v285h252l16 174h281l-16 -174h336l16 174h280l-16 -174h143v-285h-167l-29 -313h196v-285h-223l-12 -141h-281l13 141h-338l-13 -141h-278l12 141h-172zM569 426h338l29 313h-338z" />
<glyph unicode="$" horiz-adv-x="1007" d="M76 821q0 125 71 213.5t201 120.5l21 217h280l17 -211q56 -8 105 -20.5t70 -20.5l21 -8l-28 -293q-171 43 -271 43q-63 0 -86.5 -9.5t-23.5 -31.5t35.5 -40t88.5 -30t115.5 -36t115.5 -54t88.5 -87.5t35.5 -133.5q0 -277 -262 -352l-21 -262h-280l-21 240 q-73 5 -139.5 19.5t-96.5 26.5l-30 11l31 297q127 -47 264 -47q85 0 126.5 18t41.5 45q0 18 -26 31t-67 23.5t-91 23.5t-100.5 36.5t-91.5 56t-67 87.5t-26 127z" />
<glyph unicode="%" horiz-adv-x="2250" d="M57 1004q0 195 117.5 313.5t325.5 118.5q202 0 323 -120t121 -312q0 -198 -115.5 -318.5t-328.5 -120.5q-218 0 -330.5 119.5t-112.5 319.5zM385 1006q0 -148 115 -148q65 0 93 42t28 106q0 139 -121 139q-115 0 -115 -139zM610 0l594 1198h338l-594 -1198h-338z M1307 395q0 195 117 313.5t325 118.5q202 0 323 -120t121 -312q0 -198 -115.5 -318t-328.5 -120q-218 0 -330 119t-112 319zM1634 397q0 -147 115 -147q65 0 93 41.5t28 105.5q0 140 -121 140q-115 0 -115 -140z" />
<glyph unicode="&#x26;" horiz-adv-x="1411" d="M57 356q0 68 24 127t66 102.5t91.5 75t107.5 54.5q-37 84 -37 166q0 171 141 264.5t400 93.5l127 -319q-45 0 -78 -2.5t-67 -11.5t-55 -23.5t-34.5 -40.5t-13.5 -62q0 -134 221 -295q17 66 17 129q0 87 -31 199l297 21q41 -121 41 -240q0 -141 -55 -266q100 -49 188 -78 l-154 -293q-127 60 -239 125q-181 -125 -441 -125q-237 0 -376.5 110t-139.5 289zM424 412q0 -70 51.5 -124.5t167.5 -54.5q61 0 113 21q-173 129 -289 270q-43 -40 -43 -112z" />
<glyph unicode="'" horiz-adv-x="536" d="M57 979v547h369l-74 -547h-295z" />
<glyph unicode="(" horiz-adv-x="907" d="M186 557q0 145 19 278t48.5 229t66 178.5t73 136t66 92t48.5 55.5l19 16l308 -127q-10 -13 -27 -37t-60 -107.5t-76 -176t-60 -238.5t-27 -299q0 -111 14 -218t36 -189t48.5 -155t53 -124t48.5 -88.5t36 -55.5l14 -18l-308 -127q-7 6 -19.5 17t-47.5 52t-67 90.5 t-71.5 133.5t-67.5 178t-47.5 226.5t-19.5 277.5z" />
<glyph unicode=")" horiz-adv-x="907" d="M74 -291q10 13 27 37t59.5 107.5t75 176t59.5 238.5t27 299t-25.5 296.5t-62 239t-73 169.5t-61.5 108l-26 35l307 127q7 -6 19.5 -17t47.5 -52t67 -90.5t71.5 -133.5t67.5 -178t47.5 -226.5t19.5 -277.5t-19 -278t-48.5 -229t-66 -178.5t-73 -136t-66 -92t-48.5 -55.5 l-19 -16z" />
<glyph unicode="*" horiz-adv-x="985" d="M0 987l115 352l262 -163l-66 301h371l-74 -299l266 155l113 -352l-305 -23l229 -204l-301 -217l-116 282l-123 -280l-299 219l233 198z" />
<glyph unicode="+" horiz-adv-x="1136" d="M55 403v312h353v334h327v-334h346v-312h-346v-335h-327v335h-353z" />
<glyph unicode="," horiz-adv-x="667" d="M23 -219q7 5 18.5 14.5t40.5 39t51.5 59t41 72t18.5 81.5q0 13 -1.5 21.5t-2.5 11.5l-1 2q-3 2 -7.5 5.5t-16 17t-20.5 29t-16 41t-7 52.5q0 75 53 129t152 54q104 0 180 -84.5t76 -219.5q0 -70 -21 -136t-55 -115.5t-75 -93t-81.5 -73t-74.5 -50.5t-55 -31l-21 -10z" />
<glyph unicode="-" horiz-adv-x="825" d="M57 403v312h711v-312h-711z" />
<glyph unicode="." horiz-adv-x="761" d="M141 172q0 91 72 160q67 55 166 55t166 -55q69 -66 69 -160q0 -97 -69 -160q-67 -55 -166 -55t-166 55q-72 66 -72 160z" />
<glyph unicode="/" horiz-adv-x="1128" d="M-45 -512l874 2048h381l-872 -2048h-383z" />
<glyph unicode="0" horiz-adv-x="1261" d="M63 596q0 117 18 212.5t60 177t106.5 136.5t161.5 86t222 31q155 0 267 -46.5t176.5 -134t94 -201.5t29.5 -261q0 -148 -29.5 -261.5t-94.5 -200t-176.5 -132t-266.5 -45.5q-125 0 -221.5 30t-161.5 84.5t-107 135t-60 176t-18 213.5zM483 596q0 -81 2.5 -129.5t11 -92 t25 -64.5t43 -32.5t66.5 -11.5q34 0 57.5 7t40 24.5t26 40.5t15 64t7 83.5t1.5 110.5q0 81 -2.5 129.5t-11 92.5t-24.5 65.5t-42.5 34t-66.5 12.5q-95 0 -121.5 -69t-26.5 -265z" />
<glyph unicode="1" horiz-adv-x="888" d="M72 1059l407 139h266v-1198h-389v877l-223 -82z" />
<glyph unicode="2" horiz-adv-x="1038" d="M25 0v207q12 8 32.5 21.5t79 56.5t112.5 85.5t119 101.5t112 112t79.5 110t32.5 101q0 116 -170 116q-68 0 -143 -12.5t-117 -25.5l-41 -13l-53 301q5 3 15.5 8.5t48.5 19t82.5 23.5t118.5 18.5t156 8.5q247 0 374.5 -111.5t127.5 -298.5q0 -260 -397 -499h399v-330h-968 z" />
<glyph unicode="3" horiz-adv-x="1073" d="M86 23l29 286q179 -51 331 -51q103 0 144 25t41 82q0 44 -30.5 60.5t-94.5 16.5h-141l-78 254l172 178h-334v324h833v-223l-340 -305q410 0 410 -305q0 -200 -141.5 -304t-376.5 -104q-137 0 -243 16.5t-143 32.5z" />
<glyph unicode="4" horiz-adv-x="1183" d="M51 414l318 784h405l-285 -661h168l62 372h319v-372h125v-193l-125 -100v-244h-391v233h-575z" />
<glyph unicode="5" horiz-adv-x="1077" d="M102 23l29 286q180 -51 332 -51q88 0 130 34t42 93q0 49 -38 82t-112 33h-319l45 698h731v-324h-428l-6 -126h12q94 0 170 -11.5t141 -38t108.5 -68t68 -103.5t24.5 -142q0 -92 -31 -166.5t-81 -122.5t-117 -80t-136 -45.5t-141 -13.5q-137 0 -243 16.5t-143 32.5z" />
<glyph unicode="6" horiz-adv-x="1144" d="M63 506q0 146 44.5 268t115.5 203.5t165 140t189 87t191 34.5l127 -309q-60 -6 -97.5 -12t-88 -20t-89.5 -40t-69 -65h33q516 0 516 -412q0 -191 -142 -307.5t-372 -116.5q-119 0 -212.5 31t-164 95.5t-108.5 171.5t-38 251zM463 440q0 -109 27.5 -147.5t95.5 -38.5 q57 0 85.5 37t28.5 98q0 60 -33 93.5t-130 33.5h-72q-2 -25 -2 -76z" />
<glyph unicode="7" horiz-adv-x="1005" d="M14 858v340h979v-219l-381 -979h-448l389 858h-539z" />
<glyph unicode="8" horiz-adv-x="1198" d="M43 346q0 174 147 268q-118 89 -118 234q0 167 145 279t381 112t381 -112t145 -279q0 -146 -120 -234q149 -93 149 -268q0 -64 -18.5 -120t-60.5 -105.5t-105 -85.5t-156 -56.5t-209 -21.5h-6q-118 0 -212.5 20.5t-157.5 56.5t-105.5 86t-61 106t-18.5 120zM449 385 q0 -59 38 -95t111 -36h2q71 0 109.5 36t38.5 95q0 49 -40.5 83t-115.5 34h-4q-67 -4 -103 -37.5t-36 -79.5zM459 836q0 -54 34 -88t93 -37h24q58 3 92.5 37t34.5 88q0 51 -37 78.5t-102 27.5t-102 -27.5t-37 -78.5z" />
<glyph unicode="9" horiz-adv-x="1144" d="M45 815q0 191 142 307.5t372 116.5q119 0 212.5 -31t164 -95.5t108 -171.5t37.5 -251q0 -146 -44 -268t-115.5 -203.5t-165.5 -140t-188.5 -87t-190.5 -34.5l-127 309q81 8 130 16.5t111 39t101 81.5h-31q-516 0 -516 412zM444 807q0 -28 6 -48t22 -39.5t50.5 -29.5 t85.5 -10h70q4 46 4 76q0 109 -27.5 147.5t-95.5 38.5q-57 0 -86 -37.5t-29 -97.5z" />
<glyph unicode=":" horiz-adv-x="761" d="M141 172q0 91 72 160q67 55 166 55t166 -55q69 -66 69 -160q0 -97 -69 -160q-67 -55 -166 -55t-166 55q-72 66 -72 160zM141 852q0 91 72 160q67 55 166 55t166 -55q69 -66 69 -160q0 -97 -69 -160q-67 -55 -166 -55t-166 55q-72 66 -72 160z" />
<glyph unicode=";" horiz-adv-x="761" d="M78 -219q7 5 18.5 14.5t40.5 39t51.5 59t41 72t18.5 81.5l-4 35q-3 2 -7.5 5.5t-16 17t-20.5 29t-16.5 41t-7.5 52.5q0 75 53 129t152 54q104 0 180 -84.5t76 -219.5q0 -70 -21 -136t-55 -115.5t-74.5 -93t-81.5 -73t-75 -50.5t-55 -31l-21 -10zM141 852q0 91 72 160 q67 55 166 55t166 -55q69 -66 69 -160q0 -97 -69 -160q-67 -55 -166 -55t-166 55q-72 66 -72 160z" />
<glyph unicode="&#x3c;" horiz-adv-x="921" d="M102 594l471 500l246 -211l-276 -289l276 -289l-246 -211z" />
<glyph unicode="=" horiz-adv-x="1310" d="M55 164v311h1200v-311h-1200zM55 643v311h1200v-311h-1200z" />
<glyph unicode="&#x3e;" horiz-adv-x="921" d="M102 305l277 289l-277 289l246 211l471 -500l-471 -500z" />
<glyph unicode="?" horiz-adv-x="1091" d="M145 1161q5 3 15.5 8.5t49 19t83.5 23.5t120.5 18.5t159.5 8.5q238 0 367 -94.5t129 -233.5q0 -79 -38.5 -146.5t-100 -112.5t-136 -81t-149 -56t-136 -33.5t-99.5 -17.5l-39 -5l-27 246q13 2 35 7t78.5 20.5t99.5 32.5t78 43.5t35 53.5q0 31 -34 40t-106 9 q-81 0 -163.5 -12.5t-124.5 -25.5l-43 -13zM256 172q0 91 72 160q67 55 166 55q98 0 165 -55q70 -67 70 -160q0 -96 -70 -160q-67 -55 -165 -55q-99 0 -166 55q-72 66 -72 160z" />
<glyph unicode="@" horiz-adv-x="2091" d="M84 492q0 210 67.5 382.5t197 298t332 194.5t460.5 69q429 0 651.5 -194t222.5 -535q0 -328 -127.5 -479.5t-369.5 -151.5q-220 0 -289 112h-19q-2 -5 -6 -12.5t-20.5 -26.5t-37 -34t-57.5 -27t-81 -12q-185 0 -294.5 110t-109.5 330q0 199 135.5 320.5t368.5 121.5 q101 0 191.5 -11t130.5 -21l40 -11v-532q0 -36 14.5 -53t51.5 -17q53 0 86.5 28.5t54.5 113t21 231.5q0 234 -134 348.5t-423 114.5q-126 0 -230.5 -22t-193 -71.5t-149 -125t-94.5 -186.5t-34 -252q0 -300 157 -450.5t433 -150.5q116 0 206.5 10.5t123.5 21.5l33 11 l24 -282q-4 -3 -11.5 -7.5t-37.5 -16t-68.5 -20.5t-107.5 -16.5t-150 -7.5q-958 0 -958 908zM926 516q0 -97 33.5 -148t115.5 -51q50 0 78 22.5t39 49.5v326q-24 8 -88 8q-53 0 -89 -15.5t-55 -45.5t-26.5 -64.5t-7.5 -81.5z" />
<glyph unicode="A" horiz-adv-x="1411" d="M23 0l450 1198h488l430 -1198h-420l-60 205h-417l-58 -205h-413zM578 494h247l-118 393h-9z" />
<glyph unicode="B" d="M125 0v1198q217 41 469 41q297 0 437 -94t140 -250q0 -184 -176 -289q232 -59 232 -266q0 -180 -157.5 -281.5t-455.5 -101.5q-115 0 -237 10.5t-187 21.5zM489 268q88 -8 179 -8q90 0 129 29.5t39 75.5q0 104 -168 104h-179v-201zM489 737h160q68 0 106 29t38 76 q0 45 -42.5 69.5t-113.5 24.5q-38 0 -148 -8v-191z" />
<glyph unicode="C" horiz-adv-x="1142" d="M45 596q0 297 170.5 470t480.5 173q75 0 145 -8.5t116 -20.5t81.5 -24t51.5 -20l16 -9l-53 -309q-14 6 -39.5 14.5t-101 22.5t-148.5 14q-301 0 -301 -303q0 -299 299 -299q87 0 159.5 12.5t102.5 25.5l29 13l53 -309q-4 -3 -13.5 -8.5t-44 -20t-76 -25t-113 -19.5 t-152.5 -9q-318 0 -490 171t-172 468z" />
<glyph unicode="D" horiz-adv-x="1400" d="M125 0v1198q222 41 502 41q349 0 540 -165.5t191 -477.5q0 -308 -186.5 -472.5t-542.5 -164.5q-134 0 -260 10.5t-185 20.5zM535 285q33 -2 98 -2q156 0 231.5 74t75.5 239q0 168 -77 243.5t-236 75.5q-61 0 -92 -2v-628z" />
<glyph unicode="E" horiz-adv-x="1140" d="M125 0v1198h915v-324h-505v-116h430v-309h-430v-125h522v-324h-932z" />
<glyph unicode="F" horiz-adv-x="1075" d="M125 0v1198h924v-324h-514v-196h450v-311h-450v-367h-410z" />
<glyph unicode="G" horiz-adv-x="1337" d="M45 596q0 139 52.5 259t145 204t223 132t282.5 48q77 0 148.5 -8.5t118 -20.5t82.5 -24t52 -20l16 -9l-53 -309q-14 6 -40 14.5t-109 22.5t-170 14q-166 0 -248 -82.5t-82 -222.5q0 -148 81 -222.5t224 -74.5q125 0 137 8v111h-205v313h551v-709q-24 -7 -68 -17.5 t-181 -28t-273 -17.5q-179 0 -311.5 45t-213.5 130t-120 200.5t-39 263.5z" />
<glyph unicode="H" horiz-adv-x="1427" d="M125 0v1198h410v-438h358v438h410v-1198h-410v451h-358v-451h-410z" />
<glyph unicode="I" horiz-adv-x="659" d="M125 0v1198h410v-1198h-410z" />
<glyph unicode="J" horiz-adv-x="659" d="M-82 -86q109 0 158 54.5t49 158.5v1071h410v-1165q0 -224 -124.5 -336.5t-365.5 -112.5z" />
<glyph unicode="K" horiz-adv-x="1363" d="M125 0v1198h410v-426h51l301 426h456l-421 -545l464 -653h-479l-319 473h-53v-473h-410z" />
<glyph unicode="L" horiz-adv-x="1030" d="M125 0v1198h410v-874h479v-324h-889z" />
<glyph unicode="M" horiz-adv-x="1787" d="M125 0v1198h391l369 -584h16l373 584h389v-1198h-393v567h-15l-225 -362h-272l-228 362h-12v-567h-393z" />
<glyph unicode="N" horiz-adv-x="1458" d="M125 0v1198h426l430 -678h8l-10 121v557h354v-1198h-432l-424 666h-8l8 -156v-510h-352z" />
<glyph unicode="O" horiz-adv-x="1427" d="M45 600q0 140 43.5 256.5t126 202t210.5 133t290 47.5q215 0 367.5 -83t227 -225.5t74.5 -330.5q0 -141 -43 -258t-125.5 -203t-210.5 -134t-290 -48t-290 48t-210.5 134t-126 203t-43.5 258zM463 600q0 -133 64 -218t188 -85t187 85t63 218q0 130 -63.5 214.5 t-186.5 84.5t-187.5 -85t-64.5 -214z" />
<glyph unicode="P" horiz-adv-x="1167" d="M125 0v1198q252 41 434 41q592 0 592 -448q0 -91 -31 -169t-82 -132t-118 -92t-139 -56t-144 -18h-131v-324h-381zM506 618h49q86 0 131 40.5t45 132.5q0 141 -176 141q-33 0 -49 -2v-312z" />
<glyph unicode="Q" horiz-adv-x="1425" d="M45 600q0 140 43.5 256.5t126 202t210.5 133t290 47.5q215 0 367.5 -83t227 -225.5t74.5 -330.5q0 -153 -49.5 -276.5t-149.5 -211.5t-243 -126q46 -72 209 -72l-127 -330q-236 0 -347.5 88.5t-111.5 296.5q-252 39 -386 208.5t-134 422.5zM463 600q0 -133 64 -218 t188 -85t187 85t63 218q0 130 -63.5 214.5t-186.5 84.5t-187.5 -85t-64.5 -214z" />
<glyph unicode="R" horiz-adv-x="1255" d="M125 0v1198h2q233 41 432 41q594 0 594 -448q0 -117 -56 -208.5t-151 -150.5l266 -432h-469l-153 344h-84v-344h-381zM506 618h47q180 0 180 173q0 141 -176 141q-33 0 -51 -2v-312z" />
<glyph unicode="S" horiz-adv-x="995" d="M45 49l98 305q17 -7 45.5 -18t104.5 -29t137 -18q123 0 123 51q0 17 -27.5 35t-71.5 38t-97 44.5t-106 61t-97 81.5t-71.5 111.5t-27.5 144.5q0 184 120.5 283.5t316.5 99.5q113 0 213.5 -20.5t144.5 -40.5l45 -21l-74 -297q-172 51 -276 51q-88 0 -88 -53 q0 -19 27.5 -40t71 -43t96 -48t105.5 -62t96.5 -79t71 -104t27.5 -132q0 -181 -126 -287t-353 -106q-93 0 -171.5 9.5t-123.5 23t-77 27t-44 23.5z" />
<glyph unicode="T" horiz-adv-x="1075" d="M31 874v324h1013v-324h-301v-874h-409v874h-303z" />
<glyph unicode="U" horiz-adv-x="1390" d="M106 477v721h410v-639q0 -59 6.5 -98.5t25.5 -73t55.5 -49.5t92.5 -16q106 0 143.5 59t37.5 178v639h407v-721q0 -89 -17.5 -163.5t-60 -141.5t-108.5 -113.5t-168 -74t-234 -27.5t-234.5 27.5t-168.5 74t-109 113.5t-60.5 141.5t-17.5 163.5z" />
<glyph unicode="V" horiz-adv-x="1359" d="M-4 1198h438l242 -821h10l240 821h436l-416 -1198h-532z" />
<glyph unicode="W" horiz-adv-x="1955" d="M-4 1198h424l158 -770h8l172 770h442l178 -762h8l148 762h424l-350 -1198h-441l-184 729h-8l-191 -729h-442z" />
<glyph unicode="X" horiz-adv-x="1380" d="M-14 0l454 596l-450 602h469l231 -336l230 336h466l-448 -600l457 -598h-488l-217 328l-217 -328h-487z" />
<glyph unicode="Y" horiz-adv-x="1249" d="M-43 1198h457l200 -465h9l213 465h456l-463 -809v-389h-409v389z" />
<glyph unicode="Z" horiz-adv-x="1249" d="M82 0v244l547 630h-547v324h1083v-244l-542 -630h542v-324h-1083z" />
<glyph unicode="[" horiz-adv-x="972" d="M186 -203v1673h785v-292h-432v-1088h432v-293h-785z" />
<glyph unicode="\" horiz-adv-x="1128" d="M-82 1536h383l873 -2048h-381z" />
<glyph unicode="]" horiz-adv-x="972" d="M0 90h432v1088h-432v290h786v-1671h-786v293z" />
<glyph unicode="^" horiz-adv-x="864" d="M55 1104l375 342l379 -342l-162 -164l-215 209l-217 -209z" />
<glyph unicode="_" horiz-adv-x="1685" d="M55 -104h1571v-312h-1571v312z" />
<glyph unicode="`" horiz-adv-x="559" d="M-74 1393l369 41l84 -263l-275 -20z" />
<glyph unicode="a" horiz-adv-x="1292" d="M47 514q0 279 161.5 417t471.5 138q136 0 258 -12.5t176 -25.5l55 -13v-637q0 -69 30.5 -101t78.5 -32l-115 -291q-203 0 -301 109h-24q-2 -4 -6.5 -11.5t-26.5 -26.5t-52.5 -33t-89 -26t-131.5 -12q-219 0 -352 147.5t-133 409.5zM455 524q0 -141 46 -197.5t126 -56.5 q39 0 75 13t52 26l16 13v430q-39 4 -86 4q-229 0 -229 -232z" />
<glyph unicode="b" d="M102 8v1385h400v-369h10q8 5 24.5 12.5t75.5 20t127 12.5q118 0 212 -41.5t153 -115.5t90 -171.5t31 -212.5q0 -126 -40 -230t-117 -180.5t-198.5 -118.5t-277.5 -42q-139 0 -261.5 12.5t-175.5 25.5zM502 274q1 0 12 -1t29.5 -2t36.5 -1q235 0 235 248q0 238 -166 238 q-39 0 -74.5 -7t-52.5 -14t-20 -10v-451z" />
<glyph unicode="c" horiz-adv-x="1005" d="M47 518q0 259 158 405t420 146q92 0 170.5 -15.5t111.5 -31.5l33 -16l-33 -308q-12 6 -33 14.5t-78.5 23t-105.5 14.5q-231 0 -231 -228q0 -121 63 -183.5t162 -62.5q52 0 108 13t86 26l29 13l33 -312l-9 -6t-31 -14.5t-57 -18t-90.5 -14t-127.5 -6.5q-140 0 -251.5 43.5 t-182 120t-107.5 177.5t-37 220z" />
<glyph unicode="d" horiz-adv-x="1269" d="M47 514q0 138 36 245t100.5 174t151 101.5t189.5 34.5q63 0 121 -11.5t85 -22.5l26 -11h14v369h397v-1366q-24 -8 -67 -19.5t-175.5 -31t-262.5 -19.5q-299 0 -457 144.5t-158 412.5zM455 524q0 -260 213 -260l102 2v467q-59 29 -141 29q-79 0 -126.5 -58.5t-47.5 -179.5 z" />
<glyph unicode="e" horiz-adv-x="1126" d="M47 477q0 275 143 433.5t381 158.5q233 0 370.5 -138.5t137.5 -361.5q0 -49 -4 -94t-8 -65l-4 -21h-623q2 -77 57 -106t199 -29q61 0 127 13t102 25l36 13l32 -289q-3 -2 -10 -6t-35 -14.5t-64 -18t-102 -14t-145 -6.5q-122 0 -227 31.5t-187 93t-129 163t-47 232.5z M426 635h311v18q0 54 -38 91.5t-107 37.5q-66 0 -109 -39.5t-57 -107.5z" />
<glyph unicode="f" horiz-adv-x="862" d="M55 705v225l111 92q3 209 125 311.5t375 102.5l127 -320q-97 0 -151.5 -19t-70.5 -73h234v-319h-240v-705h-399v705h-111z" />
<glyph unicode="g" d="M47 514q0 279 161.5 417t471.5 138q136 0 258 -18t176 -36l55 -18v-1067q0 -89 -44 -157t-121 -108.5t-172.5 -60.5t-206.5 -20q-123 0 -221 15.5t-134 30.5l-37 16l31 282q144 -47 281 -47q225 0 225 86v58h-14q-3 -3 -8 -7.5t-25 -16t-43.5 -20.5t-63.5 -16.5t-84 -7.5 q-219 0 -352 147.5t-133 409.5zM455 524q0 -141 46 -197.5t126 -56.5q39 0 75 13t52 26l16 13v430q-39 4 -86 4q-229 0 -229 -232z" />
<glyph unicode="h" horiz-adv-x="1280" d="M102 0v1393h400v-369h12q9 5 27.5 12.5t90 20t159.5 12.5q198 0 298.5 -98.5t100.5 -290.5v-680h-399v606q0 49 -36 81t-114 32l-139 -6v-713h-400z" />
<glyph unicode="i" horiz-adv-x="604" d="M98 1292q0 90 55 137.5t148 47.5t148 -47.5t55 -137.5t-55 -138t-148 -48q-91 0 -147 48.5t-56 137.5zM102 0v1024h400v-1024h-400z" />
<glyph unicode="j" horiz-adv-x="622" d="M-66 -82q187 0 187 193v913h399v-1008q0 -428 -459 -428zM117 1292q0 90 54.5 137.5t147.5 47.5t148 -47.5t55 -137.5t-55 -138t-148 -48q-91 0 -146.5 48t-55.5 138z" />
<glyph unicode="k" horiz-adv-x="1206" d="M102 0v1393h400v-742h39l180 373h457l-304 -459l336 -565h-477l-196 371h-35v-371h-400z" />
<glyph unicode="l" horiz-adv-x="686" d="M102 385v1008h400v-914q0 -94 44 -143t142 -49l-127 -330q-459 0 -459 428z" />
<glyph unicode="m" horiz-adv-x="1804" d="M102 0v997q26 8 73 20t194.5 32t296.5 20q186 0 292 -59q208 59 342 59q221 0 316.5 -94.5t95.5 -286.5v-688h-399v627q0 51 -24 71.5t-81 20.5q-50 0 -100 -10v-709h-399v627q0 51 -23.5 71.5t-79.5 20.5q-34 0 -60.5 -1.5t-35.5 -3.5l-10 -1v-713h-398z" />
<glyph unicode="n" horiz-adv-x="1282" d="M102 0v997q27 8 75.5 20t199 32t301.5 20q277 0 394.5 -95.5t117.5 -293.5v-680h-399v606q0 49 -35 81t-113 32l-143 -4v-715h-398z" />
<glyph unicode="o" d="M47 532q0 251 153.5 393t434.5 142t435.5 -142t154.5 -393q0 -266 -161 -421.5t-429 -155.5q-280 0 -434 153.5t-154 423.5zM457 516q0 -125 40 -193.5t138 -68.5t139 68t41 192q0 122 -41 188t-139 66t-138 -65t-40 -187z" />
<glyph unicode="p" d="M102 -369v1366q23 8 64.5 20t169.5 32t256 20q147 0 258.5 -27.5t181.5 -75t114 -117.5t61.5 -147.5t17.5 -173.5q0 -252 -134.5 -411.5t-351.5 -159.5q-45 0 -85 7t-64.5 17t-43 20t-26.5 17l-8 7h-12v-394h-398zM500 324q6 -6 18 -15t50.5 -24t80.5 -15 q73 0 119.5 59.5t46.5 188.5q0 131 -61 184.5t-174 53.5l-80 -4v-428z" />
<glyph unicode="q" d="M47 514q0 279 161.5 417t471.5 138q119 0 241.5 -18t184.5 -36l63 -18v-1366h-399v394h-14q-3 -3 -8 -7.5t-25 -16t-43.5 -20.5t-63.5 -16.5t-84 -7.5q-219 0 -352 147.5t-133 409.5zM455 524q0 -141 46 -197.5t126 -56.5q39 0 75 13t52 26l16 13v430q-39 4 -86 4 q-229 0 -229 -232z" />
<glyph unicode="r" horiz-adv-x="866" d="M102 0v997q20 8 58 20t158 32t245 20q89 0 164.5 -14.5t106.5 -28.5l30 -14l-37 -310q-92 37 -225 37l-102 -6v-733h-398z" />
<glyph unicode="s" horiz-adv-x="1007" d="M76 717q0 159 113 255.5t309 96.5q100 0 191 -15.5t132 -30.5l41 -15l-28 -293q-171 43 -271 43q-63 0 -86.5 -9.5t-23.5 -31.5t35.5 -40t88.5 -30t115.5 -36t115.5 -54t88.5 -87.5t35.5 -133.5q0 -184 -118.5 -281.5t-379.5 -97.5q-95 0 -183 15t-129 30l-40 16l31 297 q127 -47 264 -47q85 0 126.5 18.5t41.5 45.5q0 18 -26 31t-67 23.5t-91 23.5t-100.5 36.5t-91.5 56t-67 87.5t-26 127z" />
<glyph unicode="t" horiz-adv-x="858" d="M45 705v225l119 65l88 203h303v-174h203v-319h-203v-267q0 -89 41 -120t145 -31l-127 -330q-236 0 -347 88.5t-111 298.5v361h-111z" />
<glyph unicode="u" horiz-adv-x="1284" d="M92 342v682h400v-608q0 -49 36.5 -80t114.5 -31q41 0 75.5 1.5t49.5 3.5l14 1v713h400v-997q-25 -8 -72 -19.5t-199 -31t-311 -19.5q-185 0 -298 44t-161.5 127t-48.5 214z" />
<glyph unicode="v" horiz-adv-x="1196" d="M2 1024h440l150 -700h14l148 700h440l-334 -1024h-524z" />
<glyph unicode="w" horiz-adv-x="1755" d="M10 1024h422l98 -604h13l135 604h399l135 -604h13l98 604h422l-309 -1024h-432l-121 588h-11l-120 -588h-435z" />
<glyph unicode="x" horiz-adv-x="1230" d="M4 0l358 512l-358 512h465l141 -305h13l141 305h463l-359 -512l359 -512h-465l-139 326h-13l-139 -326h-467z" />
<glyph unicode="y" horiz-adv-x="1216" d="M0 1024h440l203 -664h10l123 664h441l-336 -983q-40 -118 -91 -203t-102 -133.5t-115.5 -76.5t-120.5 -36t-130 -8l-121 332q186 0 256 86z" />
<glyph unicode="z" horiz-adv-x="1044" d="M37 0v213l418 502h-383v309h936v-193l-418 -522h405l-2 -309h-956z" />
<glyph unicode="{" horiz-adv-x="991" d="M211 432v332q28 0 58 4t62.5 12.5t53.5 26.5t21 43q0 45 -31 160t-31 188q0 68 17 118.5t57.5 93t107.5 69t169 41t239 14.5v-289q-128 0 -187 -37t-59 -114q0 -60 31 -168t31 -170q0 -90 -93 -158q93 -68 93 -158q0 -62 -31 -170t-31 -168q0 -77 59 -114t187 -37v-289 q-137 0 -239 14.5t-169 41t-107.5 69t-57.5 93t-17 118.5q0 73 31 188t31 160q0 25 -21 43t-53.5 26.5t-62.5 12.5t-58 4z" />
<glyph unicode="|" horiz-adv-x="878" d="M250 -512v2048h379v-2048h-379z" />
<glyph unicode="}" horiz-adv-x="991" d="M119 -49q128 0 187 37t59 114q0 60 -31 168t-31 170q0 91 92 158q-92 67 -92 158q0 62 31 170t31 168q0 77 -59 114t-187 37v289q137 0 239 -14.5t169 -41t107.5 -69t57.5 -93t17 -118.5q0 -73 -31 -188t-31 -160q0 -25 21 -43t53.5 -26.5t62.5 -12.5t58 -4v-332 q-28 0 -58 -4t-62.5 -12.5t-53.5 -26.5t-21 -43q0 -45 31 -160t31 -188q0 -68 -17 -118.5t-57.5 -93t-107.5 -69t-169 -41t-239 -14.5v289z" />
<glyph unicode="~" horiz-adv-x="1447" d="M117 846q5 5 14 14.5t42 32.5t72.5 41t106 32.5t140.5 14.5q85 0 155 -18.5t117.5 -45t92 -53t100.5 -45t122 -18.5q65 0 124 13.5t85 27.5l27 14l16 -315q-4 -6 -11.5 -15.5t-36.5 -33.5t-64.5 -42.5t-96 -33.5t-129.5 -15q-75 0 -139.5 17.5t-111.5 42.5t-93 50 t-107 42.5t-132 17.5q-45 0 -90 -7.5t-77.5 -18.5t-59 -22.5t-39.5 -18.5l-13 -8z" />
<glyph unicode="&#xa4;" horiz-adv-x="1298" d="M76 309l203 152q-43 82 -43 186q0 95 38 176l-198 158l147 180l191 -182q109 72 237 72q122 0 228 -66l196 176l148 -180l-201 -150q47 -83 47 -184q0 -100 -45 -182l199 -156l-148 -180l-190 180q-103 -67 -234 -67q-129 0 -229 65l-199 -178zM498 649q0 -75 42 -118.5 t111 -43.5t113.5 42.5t44.5 117.5q0 74 -44 116t-114 42q-69 0 -111 -41t-42 -115z" />
<glyph unicode="&#xa7;" horiz-adv-x="1099" d="M33 438q0 65 24 126t63.5 107t73.5 76.5t70 53.5q-6 27 -6 55q0 191 122 287t378 96l127 -319q-107 0 -157 -17.5t-50 -62.5q0 -15 29.5 -38.5t73 -49t95 -63.5t95 -80t73 -101t29.5 -123q0 -65 -24 -126t-63.5 -107.5t-73.5 -76.5t-70 -55q6 -24 6 -53q0 -191 -122 -287 t-378 -96l-127 320q107 0 157 17.5t50 62.5q0 15 -29.5 38.5t-73 49t-95 63.5t-95 79.5t-73 100.5t-29.5 123zM369 483q0 -38 45 -75.5t136.5 -90.5t137.5 -88q49 53 49 111q0 38 -46 75.5t-136.5 89.5t-138.5 89q-47 -54 -47 -111z" />
<glyph unicode="&#xa9;" horiz-adv-x="1677" d="M82 692q0 160 47.5 294.5t139.5 235.5t236.5 157.5t328.5 56.5q185 0 331 -56.5t239 -157.5t142 -235.5t49 -294.5t-48 -293t-140.5 -232.5t-239 -154.5t-333.5 -55t-332 55t-236 154.5t-137.5 232.5t-46.5 293zM406 690q0 -209 110 -335t315 -126q209 0 325 126.5 t116 334.5q0 210 -116.5 341.5t-324.5 131.5q-204 0 -314.5 -130.5t-110.5 -342.5zM500 682q0 170 106.5 270.5t280.5 100.5q48 0 87 -6.5t54 -13.5l14 -7l-24 -219q-61 10 -90 10q-80 0 -118 -31.5t-38 -103.5q0 -117 146 -117q18 0 43 5.5t41 11.5l16 6l24 -242 q-42 -27 -155 -27q-175 0 -281 97t-106 266z" />
<glyph unicode="&#xab;" horiz-adv-x="1337" d="M174 512l397 403l172 -188l-215 -217l213 -217l-172 -195zM649 512l398 403l172 -188l-215 -217l213 -217l-173 -195z" />
<glyph unicode="&#xad;" horiz-adv-x="899" d="M94 403v312h711v-312h-711z" />
<glyph unicode="&#xae;" horiz-adv-x="1525" d="M82 764q0 144 43 265.5t125.5 212t212.5 141.5t295 51q167 0 298.5 -51t215.5 -141.5t128 -212t44 -265.5t-43.5 -263.5t-127 -209t-215.5 -139.5t-300 -50t-298.5 50t-212.5 139.5t-123.5 209t-41.5 263.5zM373 762q0 -186 98.5 -289.5t284.5 -103.5q190 0 293.5 104 t103.5 289q0 187 -104 296t-293 109q-186 0 -284.5 -108.5t-98.5 -296.5zM492 489v566h253q139 0 211 -57.5t72 -163.5q0 -90 -65 -158l65 -187h-246l-32 109h-29v-109h-229zM721 770h10q29 0 42 15t13 36q0 17 -12.5 31t-42.5 14h-10v-96z" />
<glyph unicode="&#xb0;" horiz-adv-x="1001" d="M57 1004q0 195 117.5 313.5t325.5 118.5q202 0 323 -120t121 -312q0 -198 -115.5 -318.5t-328.5 -120.5q-218 0 -330.5 119.5t-112.5 319.5zM385 1006q0 -148 115 -148q65 0 93 42t28 106q0 139 -121 139q-115 0 -115 -139z" />
<glyph unicode="&#xb6;" horiz-adv-x="1812" d="M57 899q0 106 32.5 183.5t104 134.5t192.5 85.5t292 28.5h1077v-350h-156v-981h-417v981h-174v-981h-408v459q-258 0 -400.5 108.5t-142.5 331.5z" />
<glyph unicode="&#xb7;" horiz-adv-x="761" d="M141 786q0 91 72 160q67 55 166 55t166 -55q69 -66 69 -160q0 -96 -69 -159q-68 -56 -166 -56t-166 56q-72 66 -72 159z" />
<glyph unicode="&#xbb;" horiz-adv-x="1337" d="M115 287l217 217l-213 217l172 194l395 -413l-397 -404zM590 287l217 217l-213 217l172 194l395 -413l-397 -404z" />
<glyph unicode="&#x2000;" horiz-adv-x="771" />
<glyph unicode="&#x2001;" horiz-adv-x="1542" />
<glyph unicode="&#x2002;" horiz-adv-x="771" />
<glyph unicode="&#x2003;" horiz-adv-x="1542" />
<glyph unicode="&#x2004;" horiz-adv-x="514" />
<glyph unicode="&#x2005;" horiz-adv-x="385" />
<glyph unicode="&#x2006;" horiz-adv-x="257" />
<glyph unicode="&#x2007;" horiz-adv-x="257" />
<glyph unicode="&#x2008;" horiz-adv-x="192" />
<glyph unicode="&#x2009;" horiz-adv-x="308" />
<glyph unicode="&#x200a;" horiz-adv-x="85" />
<glyph unicode="&#x2010;" horiz-adv-x="825" d="M57 403v312h711v-312h-711z" />
<glyph unicode="&#x2011;" horiz-adv-x="825" d="M57 403v312h711v-312h-711z" />
<glyph unicode="&#x2012;" horiz-adv-x="825" d="M57 403v312h711v-312h-711z" />
<glyph unicode="&#x2013;" horiz-adv-x="1310" d="M55 403v312h1200v-312h-1200z" />
<glyph unicode="&#x2014;" horiz-adv-x="1681" d="M55 403v312h1571v-312h-1571z" />
<glyph unicode="&#x2018;" horiz-adv-x="503" d="M35 940q0 96 33.5 182t80.5 141t94.5 96t80.5 59l34 18l177 -144q-5 -5 -12 -13.5t-26.5 -39t-34 -64.5t-26.5 -88t-12 -110q0 -135 63 -272l-389 -43q-63 146 -63 278z" />
<glyph unicode="&#x2019;" horiz-adv-x="503" d="M-16 805q4 5 11.5 13.5t26.5 39t33.5 64.5t26.5 88t12 110q0 136 -63 273l389 43q63 -146 63 -279q0 -70 -18 -135t-46.5 -113t-62.5 -90t-68.5 -70t-63 -48.5t-46.5 -29.5l-18 -9z" />
<glyph unicode="&#x201a;" horiz-adv-x="503" d="M-16 -219q4 5 11.5 13.5t26.5 39t33.5 64.5t26.5 88t12 110q0 136 -63 273l389 43q63 -146 63 -279q0 -70 -18 -135t-46.5 -113t-62.5 -90t-68.5 -70t-63 -48.5t-46.5 -29.5l-18 -9z" />
<glyph unicode="&#x201c;" horiz-adv-x="1007" d="M35 940q0 96 33.5 182t80.5 141t94.5 96t80.5 59l34 18l177 -144q-5 -5 -12 -13.5t-26.5 -39t-34 -64.5t-26.5 -88t-12 -110q0 -135 63 -272l-389 -43q-63 146 -63 278zM539 940q0 96 33.5 182t80.5 141t94.5 96t80.5 59l34 18l176 -144q-4 -5 -11.5 -13.5t-26.5 -39 t-33.5 -64.5t-26.5 -88t-12 -110q0 -135 63 -272l-389 -43q-63 146 -63 278z" />
<glyph unicode="&#x201d;" horiz-adv-x="1007" d="M-16 805q4 5 11.5 13.5t26.5 39t33.5 64.5t26.5 88t12 110q0 136 -63 273l389 43q63 -146 63 -279q0 -70 -18 -135t-46.5 -113t-62.5 -90t-68.5 -70t-63 -48.5t-46.5 -29.5l-18 -9zM487 805q5 5 12 13.5t26.5 39t34 64.5t26.5 88t12 110q0 136 -63 273l389 43 q63 -146 63 -279q0 -70 -18 -135t-46.5 -113t-62.5 -90t-68.5 -70t-63 -48.5t-46.5 -29.5l-18 -9z" />
<glyph unicode="&#x201e;" horiz-adv-x="1007" d="M-16 -219q4 5 11.5 13.5t26.5 39t33.5 64.5t26.5 88t12 110q0 136 -63 273l389 43q63 -146 63 -279q0 -70 -18 -135t-46.5 -113t-62.5 -90t-68.5 -70t-63 -48.5t-46.5 -29.5l-18 -9zM487 -219q5 5 12 13.5t26.5 39t34 64.5t26.5 88t12 110q0 136 -63 273l389 43 q63 -146 63 -279q0 -70 -18 -135t-46.5 -113t-62.5 -90t-68.5 -70t-63 -48.5t-46.5 -29.5l-18 -9z" />
<glyph unicode="&#x2022;" horiz-adv-x="995" d="M119 688q0 138 108 240q101 82 248 82q149 0 250 -82q104 -101 104 -240q0 -67 -26.5 -130t-77.5 -109q-104 -84 -250 -84q-144 0 -248 84q-53 46 -80.5 109.5t-27.5 129.5z" />
<glyph unicode="&#x2026;" horiz-adv-x="2117" d="M141 172q0 91 72 160q67 55 166 55t166 -55q69 -66 69 -160q0 -97 -69 -160q-67 -55 -166 -55t-166 55q-72 66 -72 160zM819 172q0 91 72 160q67 55 166 55t166 -55q69 -66 69 -160q0 -97 -69 -160q-67 -55 -166 -55t-166 55q-72 66 -72 160zM1497 172q0 91 72 160 q67 55 166 55t166 -55q69 -66 69 -160q0 -97 -69 -160q-67 -55 -166 -55t-166 55q-72 66 -72 160z" />
<glyph unicode="&#x202f;" horiz-adv-x="308" />
<glyph unicode="&#x2039;" horiz-adv-x="862" d="M174 512l397 403l172 -188l-215 -217l213 -217l-172 -195z" />
<glyph unicode="&#x203a;" horiz-adv-x="862" d="M115 287l217 217l-213 217l172 194l395 -413l-397 -404z" />
<glyph unicode="&#x205f;" horiz-adv-x="385" />
<glyph unicode="&#x20ac;" horiz-adv-x="1202" d="M63 418v147h97v31q0 41 2 61l-99 35v148h125q50 188 189.5 293.5t378.5 105.5q65 0 124 -9t97 -21.5t66 -25t41 -21.5l12 -9l-43 -268q-148 49 -226 49q-94 0 -148 -21.5t-83 -72.5h424v-209h-461v-66h461v-209h-426q27 -54 81.5 -76t151.5 -22q35 0 91.5 12t95.5 24 l39 13l43 -268q-4 -3 -13 -9t-40 -21t-67 -26t-95.5 -20.5t-124.5 -9.5q-246 0 -386.5 112t-187.5 310z" />
<glyph unicode="&#x2122;" horiz-adv-x="2041" d="M25 1130v263h733v-263h-201v-577h-330v577h-202zM856 553v840h315l234 -412h14l236 412h313v-840h-317v369h-13l-116 -232h-219l-117 232h-12v-369h-318z" />
<glyph unicode="&#x25fc;" horiz-adv-x="1024" d="M0 0v1024h1024v-1024h-1024z" />
</font>
</defs>
</svg>
